<svg width="987" height="344" viewBox="0 0 987 344" fill="none" xmlns="http://www.w3.org/2000/svg">
<path fill-rule="evenodd" clip-rule="evenodd" d="M987 343.072H656.635V268.104H664.258V335.448H979.376V7.62382H664.258V74.9675H656.635V0L987 0V343.072Z" fill="#545454"/>
<path d="M54.3375 218.712H0V128.591H49.2912C49.4781 129.916 49.6565 131.242 49.8264 132.567C49.9963 133.892 50.2172 135.218 50.4891 136.543H10.475V168.758H36.4459C36.6158 170.083 36.7942 171.409 36.9811 172.734C37.151 174.059 37.3719 175.384 37.6438 176.71H10.475V210.505H53.1397L54.3375 218.712ZM82.0415 206.121C84.4203 207.277 87.6231 208.466 91.65 209.69C95.6599 210.93 99.8312 211.55 104.164 211.55C111.147 211.55 116.491 210.208 120.195 207.523C123.916 204.822 125.777 201.304 125.777 196.972C125.777 187.44 117.825 180.507 101.921 176.175C86.0175 171.842 78.0656 162.871 78.0656 149.261C78.0656 142.906 80.6228 137.52 85.7371 133.102C90.8684 128.684 97.8942 126.476 106.815 126.476C111.317 126.476 115.582 127.045 119.609 128.183C123.619 129.339 127.042 130.621 129.88 132.032C129.353 133.442 128.776 134.81 128.147 136.135C127.535 137.46 126.915 138.837 126.286 140.264C123.993 139.108 121.393 138.047 118.487 137.078C115.565 136.11 111.895 135.625 107.477 135.625C101.904 135.625 97.308 136.772 93.6889 139.066C90.0698 141.36 88.2603 144.673 88.2603 149.006C88.2603 158.81 96.2376 165.92 112.192 170.338C128.13 174.756 136.099 183.549 136.099 196.717C136.099 203.598 133.338 209.273 127.816 213.742C122.293 218.211 114.452 220.445 104.291 220.445C100.502 220.445 95.8468 219.782 90.3247 218.457C84.8026 217.132 81.2005 215.755 79.5184 214.328C79.8752 213.003 80.2745 211.66 80.7162 210.301C81.158 208.925 81.5998 207.532 82.0415 206.121ZM223.849 128.591L225.022 136.951H196.018V218.712H185.415V136.951H157.176V128.591H223.849ZM262.003 128.591V185.579C262.003 193.259 264.101 199.512 268.298 204.337C272.495 209.146 278.17 211.55 285.323 211.55C292.748 211.55 298.491 209.12 302.552 204.261C306.63 199.401 308.669 193.174 308.669 185.579V128.591H319.271V186.777C319.271 196.496 316.238 204.49 310.173 210.76C304.124 217.03 295.841 220.165 285.323 220.165C274.908 220.165 266.675 217.03 260.627 210.76C254.561 204.49 251.528 196.496 251.528 186.777V128.591H262.003ZM387.117 218.712H357.705V128.591H388.034C401.916 128.591 411.949 132.924 418.134 141.589C424.319 150.238 427.411 160.747 427.411 173.116C427.411 186.012 423.988 196.836 417.14 205.586C410.293 214.337 400.285 218.712 387.117 218.712ZM388.442 137.613H368.155V209.97H387.244C396.165 209.97 403.369 206.742 408.857 200.285C414.328 193.845 417.064 184.832 417.064 173.244C417.064 162.913 414.727 154.392 410.055 147.68C405.365 140.969 398.161 137.613 388.442 137.613ZM473.517 218.712H463.067V128.591H473.517V218.712ZM509.172 174.059C509.172 160.704 512.579 149.499 519.393 140.442C526.189 131.386 536.129 126.73 549.212 126.476C563.077 126.476 573.127 131.131 579.363 140.442C585.581 149.77 588.691 160.619 588.691 172.989C588.691 185.885 585.267 196.997 578.42 206.325C571.572 215.636 561.615 220.385 548.549 220.572C534.668 220.572 524.634 215.908 518.45 206.58C512.265 197.269 509.172 186.429 509.172 174.059ZM520.183 173.906C520.183 184.339 522.434 193.225 526.937 200.565C531.439 207.888 538.55 211.55 548.269 211.55C557.189 211.55 564.283 208.041 569.55 201.024C574.801 193.99 577.426 184.687 577.426 173.116C577.426 162.701 575.174 153.865 570.672 146.61C566.169 139.372 559.058 135.753 549.339 135.753C540.504 135.753 533.436 139.304 528.134 146.406C522.833 153.525 520.183 162.692 520.183 173.906ZM668.744 128.591H692.472C701.75 128.591 709.345 130.316 715.258 133.765C721.187 137.214 724.152 143.441 724.152 152.446C724.152 156.694 723.133 160.313 721.094 163.304C719.055 166.311 716.362 168.698 713.015 170.466C718.129 172.233 722.3 174.977 725.529 178.698C728.757 182.402 730.371 187.304 730.371 193.404C730.371 202.596 727.143 209.112 720.686 212.952C714.247 216.792 706.346 218.712 696.984 218.712H668.744V128.591ZM691.937 137.46H679.092V167.815H691.402C697.774 167.73 703.032 166.626 707.178 164.502C711.324 162.378 713.397 158.444 713.397 152.701C713.397 146.432 711.46 142.328 707.586 140.391C703.695 138.437 698.479 137.46 691.937 137.46ZM698.156 176.302H679.092V209.97H696.831C703.202 209.97 708.597 208.797 713.015 206.453C717.432 204.108 719.641 199.843 719.641 193.658C719.641 187.559 717.696 183.141 713.805 180.405C709.914 177.67 704.698 176.302 698.156 176.302ZM819.574 210.505L820.619 218.712H754.481L753.309 210.505C762.756 198.221 772.229 185.936 781.727 173.651C791.225 161.367 800.697 149.133 810.144 136.951H758.457C758.287 135.523 758.05 134.13 757.744 132.771C757.438 131.395 757.192 130.001 757.005 128.591H820.747L821.817 136.951C812.37 149.133 802.872 161.367 793.323 173.651C783.774 185.936 774.276 198.221 764.829 210.505H819.574Z" fill="#545454"/>
</svg>
