<svg width="128" height="128" viewBox="0 0 128 128" fill="none" xmlns="http://www.w3.org/2000/svg">
<rect width="128" height="128" fill="#CDF5FB"/>
<path fill-rule="evenodd" clip-rule="evenodd" d="M108 110.154H20V90.1846H22.0308V108.123H105.969V20.8H22.0308V38.7385H20V18.7692L108 18.7692V110.154Z" fill="#545454"/>
<path d="M23.2257 53.0222H29.5462C32.0174 53.0222 34.0405 53.4816 35.6155 54.4004C37.195 55.3191 37.9848 56.9779 37.9848 59.3767C37.9848 60.5081 37.7133 61.4722 37.1702 62.2687C36.627 63.0698 35.9097 63.7057 35.0181 64.1764C36.3804 64.6471 37.4915 65.3781 38.3514 66.3693C39.2114 67.3559 39.6413 68.6616 39.6413 70.2865C39.6413 72.735 38.7814 74.4707 37.0615 75.4936C35.3462 76.5164 33.2416 77.0279 30.7478 77.0279H23.2257V53.0222ZM29.4036 55.3848H25.982V63.4704H29.2611C30.9583 63.4478 32.3591 63.1536 33.4634 62.5878C34.5677 62.0221 35.1199 60.9743 35.1199 59.4445C35.1199 57.7745 34.6039 56.6815 33.572 56.1655C32.5356 55.645 31.1461 55.3848 29.4036 55.3848ZM31.0601 65.7311H25.982V74.6993H30.7071C32.4043 74.6993 33.8413 74.387 35.0181 73.7624C36.1948 73.1378 36.7832 72.0018 36.7832 70.3544C36.7832 68.7295 36.265 67.5528 35.2285 66.8241C34.1921 66.0954 32.8026 65.7311 31.0601 65.7311ZM63.4026 74.8418L63.6809 77.0279H46.0636L45.7514 74.8418C48.2678 71.5696 50.791 68.2973 53.321 65.025C55.851 61.7528 58.3742 58.4941 60.8906 55.249H47.1227C47.0774 54.8688 47.0141 54.4977 46.9326 54.1356C46.8512 53.769 46.7856 53.3979 46.7358 53.0222H63.7148L64 55.249C61.4836 58.4941 58.9536 61.7528 56.41 65.025C53.8664 68.2973 51.3364 71.5696 48.8199 74.8418H63.4026Z" fill="#545454"/>
</svg>
